Coordinates
version=1
nRows=17
nColumns=36
inDegrees=yes

Units are S.I. units (second, meters, Newtons, ...)
If the header above contains a line with 'inDegrees', this indicates whether rotational values are in degrees (yes) or radians (no).

endheader
time	pelvis_tilt	pelvis_list	pelvis_rotation	pelvis_tx	pelvis_ty	pelvis_tz	hip_flexion_r	hip_adduction_r	hip_rotation_r	knee_angle_r	knee_angle_r_beta	ankle_angle_r	subtalar_angle_r	mtp_angle_r	hip_flexion_l	hip_adduction_l	hip_rotation_l	knee_angle_l	knee_angle_l_beta	ankle_angle_l	subtalar_angle_l	mtp_angle_l	lumbar_extension	lumbar_bending	lumbar_rotation	arm_flex_r	arm_add_r	arm_rot_r	elbow_flex_r	pro_sup_r	arm_flex_l	arm_add_l	arm_rot_l	elbow_flex_l	pro_sup_l
      0.00000000	      8.39920847	     -0.98364577	      1.01743892	      0.79139353	      1.03117219	      0.85479943	     11.39380836	     -0.26549499	     -7.95123142	      8.40607387	      0.14671367	      3.15390719	     -0.24545706	     -6.44928169	    -18.14800480	     -0.97120043	     -3.60829440	     16.36458799	      0.28561594	     14.59392458	     -4.22180969	     -6.44928169	    -23.75947602	      3.99167877	     -1.57995679	      4.81820662	     -9.57468929	     -6.92631318	     19.75876241	     82.26799352	     14.94616640	     -8.89153684	      3.95208951	     26.99689667	     83.92465063
      0.01666670	      7.65005658	     -1.55113035	      0.24118467	      0.79734438	      1.02561905	      0.85651497	     12.02476573	      0.70202056	     -9.32235620	      9.22279606	      0.16096816	      1.64893854	     -3.04991416	     -6.48252946	    -17.28396495	     -1.38548977	     -3.62394836	     19.01156508	      0.33181441	     11.41091013	     -5.85221333	     -6.48252946	    -22.77984156	      4.65698294	     -0.25612362	      5.25281665	     -9.76843654	     -7.47304702	     18.84881054	     81.99114140	     13.97276666	     -8.10149591	      3.22346010	     28.60691190	     83.41537182
      0.03333330	      6.25864654	     -1.72904357	     -0.76554520	      0.80561913	      1.02247260	      0.85965467	     13.15003786	      1.24518070	     -7.32396464	      9.58102872	      0.16722050	     -0.67601276	     -3.88879063	     -6.63548751	    -16.01463068	     -1.53094393	     -3.82203779	     21.26102479	      0.37107488	      8.62751885	     -4.65171750	     -6.63548751	    -20.58346313	      5.02429985	      0.47196183	      5.53292218	     -9.89860504	     -7.54067797	     17.77710416	     79.80825963	     11.98206641	     -7.28194476	      1.80677389	     29.35203015	     80.59895525
      0.05000000	      5.46485931	     -2.85155687	     -1.07277150	      0.81448809	      1.02071504	      0.86295735	     13.43354674	      2.66245995	     -6.41882645	     10.67190076	      0.18625981	     -0.92407756	     -4.11827666	     -6.71705816	    -14.96267545	     -2.81767405	     -4.16796974	     24.14573800	      0.42142263	      6.22492458	     -4.79364012	     -6.71705816	    -19.22973094	      6.63363458	      1.14537610	      5.58264481	    -10.53114529	     -6.62612423	     17.65208555	     79.44921920	      9.89970592	     -5.94372112	     -0.46790107	     29.36452480	     78.83187556
      0.06666670	      5.20830392	     -3.98513733	     -1.20405055	      0.82059725	      1.02012986	      0.86728404	     13.18094660	      4.09036599	     -5.50127687	     12.18630662	      0.21269117	     -0.65001990	     -4.46517280	     -6.81897422	    -13.99049371	     -4.29101877	     -4.31312466	     27.72764187	      0.48393864	      3.10179699	     -5.23176903	     -6.81897422	    -18.40185549	      8.01713694	      2.03540929	      5.41477760	    -11.08742721	     -5.37202033	     17.37237885	     78.15312717	      8.16829373	     -5.01309432	     -1.48108225	     28.68700803	     76.45066878
      0.08333330	      5.15562569	     -5.02793198	     -1.08986506	      0.82382554	      1.02051020	      0.87246356	     12.57032798	      5.40070280	     -5.04236206	     13.48263987	      0.23531646	      0.05615639	     -5.19601571	     -6.87905390	    -12.64816714	     -5.89056250	     -4.27371065	     31.91617190	      0.55704228	     -0.80831432	     -5.56535539	     -6.87905390	    -17.92527100	      9.24652437	      2.70063554	      5.28527292	    -11.47816194	     -3.79282554	     17.21243274	     75.73276005	      6.76554469	     -4.38312553	     -2.45442360	     27.55405227	     73.16847444
      0.10000000	      5.19204497	     -5.89084314	     -0.68241854	      0.82661764	      1.02100317	      0.87739965	     11.70133707	      6.48953121	     -5.21427902	     14.31228981	      0.24979658	      1.15749399	     -5.76421817	     -6.93091962	    -10.92380490	     -7.52549804	     -4.06965512	     36.45725027	      0.63629905	     -5.38565736	     -5.98983235	     -6.93091962	    -17.62893584	     10.21596052	      3.23705667	      4.95693283	    -11.66597367	     -3.18891597	     17.59567375	     75.50411766	      5.74876442	     -4.02754862	     -3.42779664	     26.29052792	     72.41284484
      0.11666670	      5.35033203	     -6.55506135	     -0.07869037	      0.82907304	      1.02197584	      0.88080656	     10.59444004	      7.40151241	     -5.54464797	     14.70698685	      0.25668534	      2.23067150	     -6.55851095	     -6.94456992	     -9.00064089	     -9.07779168	     -3.78955874	     41.01140460	      0.71578404	     -9.74983289	     -6.25902087	     -6.94456992	    -17.51747985	     10.93123275	      3.49855873	      4.92563892	    -11.59868845	     -3.34801008	     17.72352006	     75.38473030	      4.86692712	     -3.97718156	     -3.78741230	     25.38061080	     72.23938464
      0.13333330	      5.34641723	     -6.98937851	      0.73252254	      0.82970713	      1.02298411	      0.88250219	      9.61320569	      8.03064827	     -6.27072763	     14.83752229	      0.25896362	      3.32440279	     -7.02136970	     -6.95898410	     -6.67007786	    -10.32534809	     -3.12754911	     45.35441630	      0.79158389	    -13.50217043	     -6.77114462	     -6.95898410	    -17.17050022	     11.43526093	      3.44331219	      4.89192732	    -11.44124705	     -3.54444204	     18.28590631	     75.23972284	      4.26185464	     -3.91383672	     -4.28828142	     24.16699122	     72.02578778
      0.15000000	      5.24654309	     -7.21773749	      1.62023323	      0.82830576	      1.02305481	      0.88337812	      8.72732394	      8.42690105	     -7.11682490	     14.78334441	      0.25801803	      4.40272289	     -7.26286503	     -6.97267346	     -4.02641174	    -11.23842092	     -2.23893909	     49.48589473	      0.86369180	    -16.35592439	     -7.57064770	     -6.97267346	    -16.80752231	     11.71727907	      3.22644208	      4.94506499	    -11.25818620	     -3.76469472	     19.11895305	     75.08598200	      3.79876114	     -3.84627847	     -4.64957353	     23.02559964	     71.86527596
      0.16666670	      5.10733113	     -7.25651569	      2.52021720	      0.82704183	      1.02205296	      0.88428747	      7.91768607	      8.59779446	     -7.98686420	     14.66487304	      0.25595032	      5.43781715	     -7.36898986	     -6.98569341	     -1.25882710	    -11.79648040	     -1.18218423	     53.20864087	      0.92866597	    -18.11609582	     -8.86071492	     -6.98569341	    -16.45570206	     11.80599099	      2.91407316	      5.06156816	    -11.01939731	     -3.99930201	     20.04034354	     74.93549431	      3.44739828	     -3.81509648	     -4.76114839	     21.99130437	     71.79482459
      0.18333330	      4.76590397	     -7.08771613	      3.24596019	      0.82710158	      1.02091581	      0.88639041	      7.33949226	      8.55150023	     -8.62090018	     14.49709181	      0.25302198	      6.61696929	     -7.36981329	     -6.97969056	      1.67558684	    -12.04254779	     -0.29198493	     56.34919946	      0.98347906	    -18.27127648	    -10.37009959	     -6.97969056	    -16.05077148	     11.58504680	      2.67573183	      5.19866296	    -10.71294623	     -4.33651690	     21.01088687	     73.53041476	      3.13903785	     -3.85272782	     -4.55920385	     20.97232248	     70.77871141
      0.20000000	      4.51840853	     -6.87693667	      4.11345959	      0.82744309	      1.02108258	      0.88936503	      6.61558365	      8.43120969	     -9.51006786	     14.14441882	      0.24686668	      7.96027777	     -6.76564311	     -7.00444817	      4.50991061	    -12.09794502	      0.78737748	     58.85379449	      1.02719249	    -17.02710488	    -12.44551948	     -7.00444817	    -15.82062348	     11.31626336	      2.76661503	      5.02841172	    -10.59554273	     -4.62459932	     22.24832499	     72.91393983	      3.19698319	     -4.10560024	     -2.71529623	     19.72477637	     70.75016687
      0.21666670	      4.29756877	     -6.57823074	      4.78390349	      0.82657907	      1.02303636	      0.89265424	      5.80043759	      8.28215213	    -10.01135647	     13.68569095	      0.23886037	      9.09296108	     -6.34055061	     -7.03551077	      7.25131527	    -11.91318562	      1.76212850	     60.82352985	      1.06157086	    -14.59903367	    -14.37195198	     -7.03551077	    -15.71094319	     10.94396430	      2.70465226	      5.24445995	    -10.43072842	     -4.94675939	     23.14009351	     72.39338506	      3.01506027	     -4.37023499	     -1.60752846	     18.89564750	     70.27594128
      0.23333330	      4.31741717	     -6.19574835	      5.06895161	      0.82430909	      1.02639381	      0.89582922	      4.66140603	      8.12167391	    -10.12441722	     13.17827352	      0.23000426	     10.07772244	     -5.80430854	     -7.04984320	      9.60699880	    -11.57212043	      2.43971029	     62.35734888	      1.08834105	    -12.04198059	    -16.11230423	     -7.04984320	    -16.00204020	     10.44359272	      2.83008225	      5.69884169	    -10.36157585	     -4.82336468	     24.07913325	     71.82234951	      2.66819097	     -4.64811578	     -1.22740522	     18.46471905	     69.66917489
      0.25000000	      4.44097948	     -5.75031567	      5.28324390	      0.82152352	      1.02924744	      0.89864286	      3.37087226	      7.90861061	    -10.38053991	     12.58588499	      0.21966513	     10.88564723	     -5.12959831	     -7.07703039	     11.78270411	    -11.06097896	      3.18561054	     63.59538206	      1.10994881	    -10.21168040	    -17.53274412	     -7.07703039	    -16.39037530	      9.90227797	      3.07724322	      6.26901659	    -10.42682473	     -4.48510081	     24.73852908	     71.69711203	      2.39533195	     -4.96236400	     -0.55054839	     18.06261604	     69.32884483
      0.26666670	      4.71931953	     -5.29146704	      5.09913083	      0.81925571	      1.03002209	      0.90128616	      1.94778981	      7.72581666	    -10.30504402	     11.99928315	      0.20942700	     11.48445463	     -4.48745663	     -7.11193644	     13.46877249	    -10.60316713	      3.52600636	     64.42269280	      1.12438810	     -8.90075008	    -18.42798956	     -7.11193644	    -16.98983147	      9.28395441	      3.47132864	      6.90799088	    -10.52419995	     -3.89774274	     25.47268754	     71.34388973	      1.98142352	     -5.26512184	     -0.37633930	     17.87247885	     68.70692690
